<?xml version="1.0" encoding="utf-8"?>
<!-- Generator: Adobe Illustrator 26.2.1, SVG Export Plug-In . SVG Version: 6.00 Build 0)  -->
<svg version="1.1" id="Layer_1" xmlns="http://www.w3.org/2000/svg" xmlns:xlink="http://www.w3.org/1999/xlink" x="0px" y="0px"
	 width="720px" height="720px" viewBox="0 0 720 720" style="enable-background:new 0 0 720 720;" xml:space="preserve">
<style type="text/css">
	.st0{fill:#FFFFFF;}
	.st1{fill:#082F43;}
	.st2{fill:#C12062;}
</style>
<g>
	<g>
		<g>
			<path class="st0" d="M374.9,626.4C210.8,626.4,91.5,504,91.5,343.1S210.8,51.3,374.9,51.3s303.2,160.8,294.8,291.8
				C659.5,502.4,539.1,626.4,374.9,626.4z M374.9,82.6c-146.9,0-253.3,123.4-253.3,267s131.1,254,278,254s241-135.8,241-279.4
				S521.8,82.6,374.9,82.6z"/>
		</g>
		<g>
			<path class="st0" d="M333.3,594.2c-164.1,0-283.4-122.4-283.4-283.3S169.2,19.1,333.3,19.1s303.2,160.8,294.8,291.8
				C618,470.3,497.5,594.2,333.3,594.2z M333.3,50.4C186.5,50.4,80,173.8,80,317.5s131.1,254,278,254S599,435.6,599,292
				S480.2,50.4,333.3,50.4z"/>
		</g>
		<g>
			<path class="st1" d="M348.9,622.7c-164.1,0-283.4-122.4-283.4-283.3S184.7,47.7,348.9,47.7s303.2,160.8,294.8,291.8
				C633.5,498.8,513,622.7,348.9,622.7z M348.9,79C202,79,95.6,202.4,95.6,346s131.1,254,278,254s241-135.8,241-279.4
				S495.8,79,348.9,79z"/>
		</g>
		<g>
			<path class="st1" d="M334.5,522.8c-164.1,0-253.7-100.3-253.7-261.2S210.1,2.2,335.7,2.8C447.3,3.4,613.4,117.1,603.3,259
				C591.9,418.3,468.9,522.8,334.5,522.8z M344.1,19.2c-146.9,0-250.7,109.4-250.7,253S222.8,501,332.6,505.1
				c136.3,5,251.9-111.9,251.9-255.5S491,19.2,344.1,19.2z"/>
		</g>
		<g>
			<path class="st2" d="M339.9,597.6c-164.1,0-253.7-105.8-253.7-275.5S215.5,48.6,341.1,49.3c111.5,0.6,277.7,120.5,267.5,270.2
				C597.3,487.4,474.3,597.6,339.9,597.6z M349.5,66.6c-146.9,0-250.7,115.4-250.7,266.9S228.2,574.7,338,579
				c136.3,5.3,251.9-118,251.9-269.5S496.4,66.6,349.5,66.6z"/>
		</g>
		<g>
			<path class="st2" d="M419.2,557.8c-149.6,52-299.1-1.6-344.1-131.1s27-272.6,176.6-324.7s312.5,31.4,343,148.7
				C629,382.6,541.7,515.2,419.2,557.8z M253.7,113.4C119.8,160,55.3,312.8,95.5,428.3S284.2,593.4,418,546.9S610.5,353,570.3,237.4
				S387.5,66.9,253.7,113.4z"/>
		</g>
		<g>
			<path class="st1" d="M419.6,564.4c-149.6,52-299.1-1.6-344.1-131.1s27-272.6,176.6-324.7s312.5,31.4,343,148.7
				C629.3,389.2,542,521.8,419.6,564.4z M254,120.1C120.1,166.6,55.7,319.4,95.9,435s188.6,165.1,322.5,118.5
				C552.2,506.9,610.8,359.6,570.6,244S387.9,73.5,254,120.1z"/>
		</g>
	</g>
	<g>
		<g>
			<path class="st0" d="M423.8,158.5c0,0,0.1,7.2-0.3,10.3c-0.4,3-1,5.9-1.7,8.4c-0.6,2.5-1.4,4.9-2.3,7.1c-0.8,2.2-2.7,6.5-2.7,6.5
				c-0.9,2.1-1.6,4.2-2.5,6.5c-1.1,3.1-2.3,6.6-3,10.3c-0.7,3.6-1.1,11.7-1.1,16.9h13.5v5h-18.7v-5c0-0.1,0-11.1,0.3-13.9
				c0.4-3.1,0.9-5.9,1.6-8.4c0.6-2.6,1.7-5,2.6-7.2c0.6-1.4,1.1-2.7,1.6-4.2c1.3-2.7,2.5-5.7,3.6-8.7c1.1-3.1,2-6.6,2.7-10.3
				c0.8-3.8,1.2-8.2,1.2-13.2v-0.1c0-1.3-0.2-2.4-1-3.2c-0.7-0.9-1.6-1.4-3.1-1.4h-0.1h-0.1c-1.5,0-2.4,0.5-3.1,1.4
				c-0.8,0.8-1,1.9-1,3.2v15.9h-5.2v-15.9c0-1.4-0.1-2.7,0.4-3.7c0.4-1.1,0.9-2,1.8-2.8c0.9-0.7,1.8-1.3,3-1.7
				c1.3-0.4,2.6-0.7,4.2-0.7c1.6,0,2.9,0.3,4.2,0.7c1.2,0.4,2.2,1,3,1.7c0.9,0.8,1.4,1.7,1.8,2.8C423.9,155.7,423.8,157,423.8,158.5
				L423.8,158.5z"/>
			<path class="st0" d="M405.1,251.1c0-1.4-0.1-2.7,0.4-3.7c0.4-1.1,0.9-2,1.8-2.8c0.9-0.7,1.8-1.3,3-1.7c1.3-0.5,2.6-0.7,4.2-0.7
				c3.2,0,4.7,0.8,6.5,2.4c1.7,1.6,2.9,3.7,2.9,6.5v62.6c0,2.8-1.2,4.9-2.9,6.4c-1.8,1.6-3.3,2.4-6.5,2.4c-1.6,0-2.9-0.2-4.2-0.6
				c-1.2-0.4-2.1-1-3-1.8c-0.9-0.8-1.4-1.7-1.8-2.7c-0.5-1.1-0.4-2.3-0.4-3.7V251.1z M418.7,251.1c0-1.3-0.3-2.4-1.1-3.2
				c-0.8-0.9-1.8-1.4-3.3-1.4s-2.4,0.5-3.1,1.4c-0.8,0.8-1,1.9-1,3.2v62.5c0,1.3,0.2,2.4,1,3.3c0.7,0.9,1.6,1.3,3.1,1.3
				s2.5-0.4,3.3-1.3c0.8-0.9,1.1-2,1.1-3.3V251.1z"/>
			<path class="st0" d="M423.8,344.6c0,0,0.1,7.2-0.3,10.3c-0.4,3-1,5.9-1.7,8.4c-0.6,2.5-1.4,4.9-2.3,7.1c-0.8,2.2-2.7,6.5-2.7,6.5
				c-0.9,2.1-1.6,4.2-2.5,6.5c-1.1,3.1-2.3,6.6-3,10.3c-0.7,3.6-1.1,11.7-1.1,16.9h13.5v5h-18.7v-5c0-0.1,0-11.1,0.3-13.9
				c0.4-3.1,0.9-5.9,1.6-8.4c0.6-2.6,1.7-5,2.6-7.2c0.6-1.4,1.1-2.7,1.6-4.2c1.3-2.7,2.5-5.7,3.6-8.7c1.1-3.1,2-6.6,2.7-10.3
				c0.8-3.8,1.2-8.2,1.2-13.2v-0.1c0-1.3-0.2-2.4-1-3.2c-0.7-0.9-1.6-1.4-3.1-1.4h-0.1h-0.1c-1.5,0-2.4,0.5-3.1,1.4
				c-0.8,0.8-1,1.9-1,3.2v15.9h-5.2v-15.9c0-1.4-0.1-2.7,0.4-3.7c0.4-1.1,0.9-2,1.8-2.8c0.9-0.7,1.8-1.3,3-1.7
				c1.3-0.4,2.6-0.7,4.2-0.7c1.6,0,2.9,0.3,4.2,0.7c1.2,0.4,2.2,1,3,1.7c0.9,0.8,1.4,1.7,1.8,2.8
				C423.9,341.8,423.8,343.1,423.8,344.6L423.8,344.6z"/>
			<path class="st0" d="M423.8,437.7c0,0,0.1,7.2-0.3,10.3c-0.4,3-1,5.9-1.7,8.4c-0.6,2.5-1.4,4.9-2.3,7.1c-0.8,2.2-2.7,6.5-2.7,6.5
				c-0.9,2.1-1.6,4.2-2.5,6.5c-1.1,3.1-2.3,6.6-3,10.3c-0.7,3.6-1.1,11.7-1.1,16.9h13.5v5h-18.7v-5c0-0.1,0-11.1,0.3-13.9
				c0.4-3.1,0.9-5.9,1.6-8.4c0.6-2.6,1.7-5,2.6-7.2c0.6-1.4,1.1-2.7,1.6-4.2c1.3-2.7,2.5-5.7,3.6-8.7c1.1-3.1,2-6.6,2.7-10.3
				c0.8-3.8,1.2-8.2,1.2-13.2v-0.1c0-1.3-0.2-2.4-1-3.2c-0.7-0.9-1.6-1.4-3.1-1.4h-0.1h-0.1c-1.5,0-2.4,0.5-3.1,1.4
				c-0.8,0.8-1,1.9-1,3.2v15.9h-5.2v-15.9c0-1.4-0.1-2.7,0.4-3.7c0.4-1.1,0.9-2,1.8-2.8c0.9-0.7,1.8-1.3,3-1.7
				c1.3-0.4,2.6-0.7,4.2-0.7c1.6,0,2.9,0.3,4.2,0.7c1.2,0.4,2.2,1,3,1.7c0.9,0.8,1.4,1.7,1.8,2.8
				C423.9,434.9,423.8,436.2,423.8,437.7L423.8,437.7z"/>
		</g>
		<g>
			<path class="st0" d="M381.9,219.1c3.9-7.7,5.9-15.8,6-24.4c0.1-6-0.6-12-2.4-17.8c-6.6-21.7-25.8-37.7-50.1-39.2
				c-5.1-0.3-10.1,0.1-15.1,1.1c-9.7,2.1-18.3,6.3-25.6,13c-11.3,10.3-17.2,23.1-18.2,38.3c-0.3,4.5,0,9,0.8,13.4
				c2.1,11.5,7.2,21.4,15.4,29.6c0.3,0.3,0.6,0.6,0.9,0.9c0,0,0.7,0.7,1.8,1.7c1.6,2.1,3.2,4.4,3.3,4.8c0.3,1.5,1,2.7,1.8,3.9
				c0.4,0.7,0.7,1.4,0.9,2.2c0.3,1.2,0.2,2.3-0.6,3.3c-1.8,2.1-3.5,4.2-5.7,5.9c-2.7,2.2-5.4,4.6-7.7,7.3c-2.2,2.5-3.8,5.3-5.4,8.2
				c-0.7,1.4-1.4,2.8-2.5,3.9c-0.4,0.4-0.6,0.8-0.5,1.3c0.3,1.9,0.7,3.7,1.9,5.4c1.6,2.3,3.4,4.5,4.3,7.1c1.1,3.1,2.6,6,4.6,8.6
				c1.2,1.6,2.6,2.9,3.6,4.7c1.2,2.1,2.6,4.1,4.5,5.8c1.5,1.4,2.3,3,2.6,5c0.6,3.2,1,6.4,2.1,9.5c1.2,3.3,3,6.4,3.5,10
				c0.5,3.5,2.3,6.5,4.3,9.4c0.8,1.1,1.2,2.4,1.3,3.8c0.2,3.1,0.8,6.1,1.1,9.2c0,0.4,0,0.8,0,1.2c-0.2,1.9-1.1,3.7-1.6,5.5
				c-1.1,3.5-1.1,7.1-1,10.7c0.1,1.8,0.1,3.6,0,5.4c-0.2,2.2-0.8,4.3-1,6.4c-0.6,5.7-0.6,11.3,1.3,16.8c2.3,6.5,3.8,13.2,4.4,20.1
				c0.1,1.6,0.4,3.1,0.6,4.7c0.4,2.6,0.7,5.2,0.7,7.8c0.1,4.1-0.7,8.2-1.3,12.3c-0.5,2.9-0.3,5.8,1.3,8.4c0.7,1.3,1.3,2.6,1.5,4
				c0.8,4,2.1,7.8,3.8,11.5c1.2,2.7,1.4,5.5,1.1,8.4c-0.1,1.8-0.2,3.6,0,5.4c0.1,0.6,0.2,1.3,0.2,1.9c-0.2,3.4-0.8,6.7-1.5,10
				c-0.2,1.1-0.1,2,1,2.7c0.5,0.3,0.6,0.7,0.1,1.1c-0.4,0.3-0.6,0.7-0.6,1.2c0,1.8,0.6,3.8,2.5,4.5c0.7,0.3,1.2,0.8,1.3,1.6
				c0.1,0.5,0.3,1,0.8,1.3c1.8,1.4,4.3,1.4,6,0c0.9-0.8,1.8-0.7,2.5,0.2c1.2,1.4,1.9,1.4,3.4,0.3c1.6-1.2,2.9-2.6,4.2-4.1
				c0.7-0.8,1.6-1.7,1.5-2.9c-0.1-1.8-0.1-3.6,0.4-5.3c0.6-2.4,0.7-4.7,0.3-7.1c-0.2-1.3-1.1-2.5-0.8-3.8c0.5-2.4,0.4-4.7,0.2-7.1
				c-0.3-3.3,0.3-6.5,0.7-9.8c0.6-5.4,1.8-10.7,4.1-15.7c0.3-0.8,0.6-1.5,0.7-2.4c0.6-3.8,0.2-7.6-0.6-11.3c-0.6-2.7-0.6-5.3-0.5-8
				c0.1-2.5,0.6-4.9,0.5-7.4c-0.2-2.4,0.4-4.7,0.7-7c0.5-4,2.1-7.7,2.6-11.8c0.3-2.7,0.5-5.3,1.5-7.9c0.6-1.6,0.7-3.2,0.7-4.9
				c0-0.8,0-1.6,0.1-2.4c0.4-2.5,0.5-4.9-0.1-7.4c-0.8-3.1-1.1-6.3-1.2-9.5c-0.2-3.4-0.1-6.7-0.2-10.1c-0.1-1.6-0.3-3.2-1-4.7
				c-1.4-2.8-1.6-5.8-1.4-8.8c0.3-4,2-7.5,3.6-11.1c0.4-0.8,1.1-1.4,1.4-2.3c0.8-2.5,1.9-4.9,2.9-7.4c1.3-3,1.7-6.1,2.3-9.3
				c0.4-2.2,0.8-4.4,0.9-6.7c0-2.2,0.8-4.1,2.5-5.6c0.7-0.6,1.3-1.2,2-1.8c2.2-1.9,3.7-4.4,6-6.2c0.1,0,0.1-0.1,0.1-0.2
				c1.9-2.2,3.1-4.9,4.3-7.5c0.3-0.6,0.3-1.4,0.8-1.8c1.5-1.3,2.7-2.9,4.4-4c1.8-1.2,3-3,3.9-5c0.2-0.4,0.1-0.8,0-1.3
				c-0.4-1.7-1.1-3.4-1.6-5.1c-1.5-5.8-4-11-8.4-15.2c-3.5-3.3-6.3-7.2-8.7-11.4c-0.8-1.3-0.6-2.8,0.5-3.9c0.8-0.7,1.6-1.5,2.2-2.3
				c2.2-3,5-8.6,5.6-12.4C375.7,228.4,379.3,224.2,381.9,219.1z M378.7,214c-0.6,1.3-1.2,2.6-1.8,3.8c-1.7,3.3-3.8,6.3-6.2,9.1
				c-0.6,0.7-0.6,0.7-1.3,0.2c-3.4-2.3-7-4.1-10.7-5.8c-0.2-0.1-0.5-0.2-0.7-0.3c-0.6-0.3-0.6-0.4-0.5-1c0.1-0.2,0.2-0.4,0.2-0.6
				c0.6-1.9,1.3-3.7,1.9-5.6c0.5-1.5,0.5-1.3,1.7-1.3c2.8,0,5.5,0,8.3,0c2.7,0,5.4,0,8.1,0C379.3,212.6,379.3,212.6,378.7,214z
				 M338.1,187.7c0-0.3,0-0.5,0-0.8c0-0.4-0.2-0.7-0.5-0.9c-0.2-0.1-0.7-0.2-0.5-0.6c0.1-0.3,0.6-0.2,0.8-0.2c1.9,0,3.7,0,5.6,0
				c0.2,0,0.4,0,0.6,0.1c0.2,0,0.2,0.2,0.1,0.4c0,0.1-0.1,0.2-0.2,0.2c-0.7,0.3-0.9,0.8-0.9,1.5c0,0.6,0,1.1,0,1.7c0,1.5,0,3,0,4.5
				c0,1.9,0,3.8,0,5.6c0,0.9,0.1,1.7,1,2c0.1,0,0.1,0.2,0.1,0.3c0,0.1-0.1,0.3-0.3,0.3c-1.1,0-2.2,0-3.3,0c-1.1,0-2.3,0-3.4,0
				c-0.2,0-0.3-0.1-0.3-0.3c0-0.1,0.1-0.2,0.1-0.2c0.9-0.3,1-1,1-1.9C338.1,195.5,338.1,191.6,338.1,187.7z M354.1,212.6
				c0.2,0,0.4,0,0.8,0.1c-0.2,0.7-0.3,1.2-0.5,1.8c-0.4,1.3-0.9,2.7-1.3,4c-0.2,0.6-0.4,0.6-0.9,0.4c-1.7-0.7-3.5-1.3-5.3-1.9
				c-3.4-1.1-6.8-1.9-10.4-2.2c-0.3,0-0.5-0.1-0.8-0.1c-1.1-0.2-1.3-0.4-1.1-1.5c0-0.2,0.2-0.4,0.4-0.4c0.3,0,0.5,0,0.8,0
				C341.9,212.6,348,212.6,354.1,212.6z M347.5,187.7c0-0.2,0-0.4,0-0.6c0-0.5-0.2-0.9-0.7-1.1c-0.2-0.1-0.6-0.2-0.4-0.5
				c0.1-0.3,0.4-0.2,0.7-0.2c4.1,0,8.2,0,12.4,0c0.7,0,1.5,0,2.2-0.1c0.4,0,0.6,0.1,0.7,0.5c0.3,1.3,0.6,2.6,0.8,4
				c0,0.1-0.1,0.3-0.2,0.4c-0.1,0.1-0.4,0-0.4-0.1c-0.6-0.8-1.4-0.9-2.4-0.9c-2.2,0-4.5,0-6.7,0c-0.9,0-1,0.1-1,0.8
				c0,1.9-0.2,1.7,1.6,1.7c1.2,0,2.4,0,3.6,0c1.4,0,1.4,0,2.5-0.9c0.1,0.1,0.2,0.3,0.2,0.4c0,1.6,0,3.1,0,4.7c0,0.1-0.1,0.3-0.2,0.4
				c-0.1,0.1-0.3,0-0.4-0.2c-0.2-0.5-0.6-0.7-1.2-0.7c-1.9,0-3.8,0-5.6,0c-0.4,0-0.6,0.2-0.6,0.5c0,2.6-0.4,2.2,2,2.3
				c1.7,0,3.4,0,5.2,0c1.1,0,2.2-0.1,2.9-1.1c0.1-0.1,0.3-0.1,0.4,0c0.1,0,0.1,0.2,0.1,0.3c0,0.1,0,0.2,0,0.3
				c-0.3,1.3-0.5,2.6-0.8,3.8c-0.1,0.3-0.3,0.5-0.7,0.5c-4.7,0-9.5,0-14.2-0.1c-0.3,0-0.6,0-0.9-0.1c-0.1,0-0.2-0.1-0.2-0.2
				c0-0.1,0-0.2,0.1-0.3c1-0.3,1.1-1.1,1.1-2C347.5,195.5,347.5,191.6,347.5,187.7z M336.2,219.7c5,0.4,9.8,1.5,14.5,3.1
				c0.1,0,0.3,0.1,0.4,0.2c-0.1,0.3-0.1,0.6-0.3,0.9c-2.8,6.6-6.1,12.9-10.3,18.7c-0.2,0.2-0.3,0.4-0.5,0.6
				c-0.2,0.3-0.5,0.5-0.8,0.5c-1.3,0.1-2.7,0.4-4,0.4c-0.3,0-0.5-0.2-0.5-0.5c0-0.4,0-0.7,0-1.1c0-7.1,0-14.3,0-21.4
				C334.6,219.6,334.6,219.6,336.2,219.7z M347,241c3.2-4.5,5.8-9.4,7.8-14.6c0.7-1.7,0.5-1.7,2.2-0.9c2.8,1.3,5.5,2.8,8.1,4.5
				c0.3,0.2,0.7,0.5,1,0.7c0.4,0.3,0.4,0.5,0.1,0.8c-0.4,0.3-0.8,0.7-1.2,1c-4.9,4.1-10.4,7.2-16.7,9c-0.5,0.2-1.1,0.3-1.6,0.4
				C346.6,241.5,346.9,241.3,347,241z M380,190c0,0.1-0.1,0.3-0.2,0.4c-0.1,0.1-0.3,0-0.4,0c-0.1,0-0.2-0.1-0.2-0.2
				c-2.2-2.1-4.8-2.3-7.6-1.8c-0.4,0.1-0.7,0.2-1,0.4c-0.4,0.4-0.5,1,0,1.4c0.4,0.3,0.8,0.4,1.3,0.6c1.2,0.3,2.4,0.6,3.6,0.9
				c0.8,0.2,1.5,0.4,2.3,0.6c0.8,0.3,1.6,0.8,2.2,1.4c1.7,1.9,1.1,5.1-0.3,6.4c-1,1-2.2,1.5-3.6,1.8c-1.2,0.3-2.4,0.4-3.5,0.3
				c-1.6,0.1-3.2-0.1-4.7-0.5c-0.5-0.1-1.2,0.2-1.6-0.4c-0.3-0.4-0.3-1-0.4-1.5c-0.3-1-0.5-2-0.8-3c0-0.2-0.1-0.4,0-0.6
				c0-0.1,0.1-0.2,0.2-0.2c0.1,0,0.2,0,0.3,0c0.1,0.1,0.2,0.2,0.3,0.3c0.8,1,1.8,1.5,3,1.9c1.7,0.5,3.5,0.7,5.2,0.3
				c0.5-0.1,0.9-0.3,1.3-0.6c0.5-0.4,0.4-1.1-0.1-1.5c-0.5-0.4-1-0.5-1.6-0.6c-1.1-0.3-2.1-0.5-3.2-0.8c-0.7-0.2-1.4-0.4-2.1-0.6
				c-0.4-0.1-0.9-0.4-1.3-0.6c-2.7-1.5-2.8-5.4-0.6-7.2c0.8-0.6,1.7-1.1,2.6-1.4c2.2-0.6,4.5-0.7,6.8-0.4c0.7,0.1,1.3,0.2,2,0.3
				c1,0.1,1,0.1,1.2,1C379.4,187.5,379.7,188.7,380,190z M370.6,160.1c1.8,2,3.4,4.2,4.8,6.6c1.3,2.1,2.3,4.2,3.3,6.4
				c0.1,0.3,0.2,0.6,0.3,0.9c0.1,0.2,0,0.4-0.3,0.4c-0.4,0-0.8,0-1.2,0c-2.7,0-5.3,0-8,0c-2.6,0-5.2,0-7.8,0c-0.4,0-0.7,0-1.1,0
				c-0.5,0-0.8-0.2-0.9-0.7c-0.3-0.9-0.5-1.8-0.8-2.7c-0.4-1.3-0.9-2.7-1.3-4c-0.2-0.6-0.1-0.8,0.5-1.1c1-0.5,2-0.9,3-1.4
				c2.9-1.4,5.7-2.9,8.3-4.7C370,159.4,370.1,159.5,370.6,160.1z M347.3,145c6.9,2,13.1,5.4,18.5,10.2c0.2,0.1,0.3,0.3,0.5,0.4
				c0.2,0.2,0.2,0.5-0.1,0.6c-0.2,0.1-0.3,0.2-0.5,0.4c-2.8,1.9-5.8,3.5-8.9,4.9c-0.1,0.1-0.3,0.1-0.4,0.2c-0.5,0.2-0.7,0.1-1-0.4
				c-0.1-0.2-0.2-0.4-0.2-0.6c-2.1-5.2-4.8-10.1-7.9-14.7c-0.2-0.3-0.5-0.5-0.5-0.9C346.9,144.9,347.1,145,347.3,145z M334.6,155.1
				c0-3.5,0-7.1,0-10.6c0-0.4,0-0.8,0-1.2c0-0.2,0.2-0.4,0.4-0.4c0.4,0,0.7,0,1.1,0c0.8,0.1,1.7,0.2,2.5,0.3c0.7,0.1,1.2,0.4,1.7,1
				c3,4.3,5.8,8.7,8.1,13.4c0.9,1.9,1.8,3.8,2.6,5.7c0.3,0.6,0.2,0.7-0.4,0.9c-3,1.1-6.1,1.9-9.2,2.5c-2,0.4-4,0.6-6,0.8
				c-0.6,0.1-0.7-0.1-0.8-0.7c0-0.4,0-0.7,0-1.1C334.6,162.1,334.6,158.6,334.6,155.1z M334.6,173.2c0-0.5,0.1-0.6,0.6-0.7
				c1.3-0.2,2.6-0.3,3.9-0.5c4.2-0.7,8.3-1.9,12.3-3.5c1.5-0.6,1.4-0.7,2,0.9c0.5,1.4,0.9,2.8,1.4,4.1c0.1,0.2,0.2,0.5,0.1,0.8
				c-0.4,0.2-0.8,0.1-1.2,0.1c-5.9,0-11.8,0-17.6,0c-0.1,0-0.1,0-0.2,0C334.6,174.4,334.6,174.3,334.6,173.2z M332.2,198.2
				c1,0,2-0.1,2.6-1c0.1-0.1,0.2-0.2,0.4-0.1c0.3,0.1,0.3,0.3,0.2,0.5c-0.2,0.9-0.4,1.8-0.6,2.8c-0.4,1.7-0.4,1.7-1.6,1.6
				c-0.9,0-1.9,0-2.8,0c-1.1,0-2.3,0-3.4,0c-2.1,0-4.3,0-6.4,0c-0.3,0-0.6,0-0.9-0.1c-0.1,0-0.3-0.2-0.1-0.4c0,0,0.1-0.1,0.1-0.1
				c1-0.3,1.1-1.1,1.1-2c0-3.9,0-7.7,0-11.6c0-0.6,0-1.3-0.6-1.7c-0.2-0.2-0.7-0.2-0.5-0.6c0.1-0.2,0.5-0.2,0.7-0.2
				c2.1,0,4.2,0,6.3,0c0.1,0,0.3,0.1,0.3,0.3c0,0.1-0.1,0.2-0.1,0.3c-1,0.3-1.1,1.2-1.1,2c0,3.1,0,6.2,0,9.2c0,0.2,0,0.4,0.1,0.6
				c0,0.2,0.2,0.4,0.4,0.4c0.3,0,0.6,0,0.9,0C328.8,198.1,330.5,198.1,332.2,198.2z M303.3,191.1c0-1.1,0-2.3,0-3.4
				c0-0.8-0.1-1.5-1-1.8c-0.1,0-0.2-0.2-0.2-0.4c0.1-0.2,0.2-0.2,0.4-0.2c2.2,0,4.4,0,6.6,0c0.1,0,0.3,0,0.3,0.3
				c0,0.2-0.1,0.3-0.3,0.3c-0.7,0.2-0.9,0.8-0.9,1.5c0,3.3,0,6.7,0,10c0,0.6,0.1,0.8,0.7,0.8c2.2,0,4.4,0,6.6,0
				c0.7,0,1.2-0.3,1.6-0.8c0.2-0.2,0.3-0.5,0.6-0.3c0.4,0.2,0.2,0.5,0.2,0.8c-0.1,0.7-0.3,1.3-0.4,2c-0.2,0.7-0.1,1.5-0.5,1.9
				c-0.5,0.5-1.3,0.1-2,0.1c-1.8,0-3.6,0-5.5,0c-2.1,0-4.3,0-6.4,0c-0.3,0-0.5,0-0.8-0.1c-0.1,0-0.2-0.1-0.2-0.2c0-0.1,0-0.2,0-0.3
				c0,0,0.1-0.1,0.1-0.1c0.9-0.3,1-1.1,1-1.9C303.3,196.6,303.3,193.8,303.3,191.1z M309.4,174.2c0.1-0.9,0.4-1.7,0.7-2.6
				c0.3-1,0.7-2,1-2.9c0.3-0.7,0.4-0.8,1.2-0.5c0.6,0.2,1.2,0.5,1.7,0.7c3.8,1.4,7.6,2.5,11.6,3.1c1.1,0.2,2.2,0.3,3.3,0.4
				c0.6,0.1,0.7,0.2,0.7,0.8c0,0.2,0,0.4,0,0.6c0,0.3-0.2,0.5-0.5,0.5c-0.3,0-0.6,0-0.9,0c-5.8,0-11.7,0-17.5,0
				C310.3,174.4,309.9,174.5,309.4,174.2z M329.7,242.5c0,1.9,0.1,1.8-1.8,1.7c-0.5,0-1-0.2-1.5-0.2c-2-0.2-1.8-0.3-2.7-1.5
				c-4.1-5.6-7.4-11.7-10-18.1c-0.1-0.2-0.2-0.5-0.3-0.7c-0.1-0.3,0-0.5,0.3-0.6c0.2-0.1,0.4-0.2,0.6-0.2c4.8-1.6,9.7-2.7,14.8-3
				c0.2,0,0.3,0,0.5,0c0.2,0.6,0.2,1.1,0.2,1.5C329.7,228.3,329.7,235.4,329.7,242.5z M328.8,214.6c-1.7,0.2-3.3,0.4-4.9,0.7
				c-3.7,0.7-7.3,1.8-10.8,3.2c-0.5,0.2-0.9,0.5-1.6,0.5c-0.8-2-1.5-4-2-6.1c0.3-0.3,0.6-0.2,0.8-0.2c6,0,12.1,0,18.1,0
				c0.2,0,0.4,0,0.6,0c0.5,0,0.6,0.2,0.6,0.7c0,0.1,0,0.1,0,0.2C329.7,214.4,329.6,214.5,328.8,214.6z M308.8,225
				c0.1,0.2,0.3,0.4,0.3,0.7c2.1,5.6,4.9,10.8,8.3,15.7v0c0.1,0.1,0.2,0.2,0.3,0.3c0.1,0.2,0,0.4-0.2,0.4c-0.3,0-0.6-0.1-0.8-0.3
				c-5.9-1.5-11.2-4.4-16-8.1c-0.9-0.7-1.7-1.4-2.5-2.1c-0.3-0.3-0.3-0.5,0-0.8c0.3-0.2,0.6-0.4,0.9-0.6c2.6-1.8,5.3-3.3,8.2-4.6
				C307.8,225.3,308.2,225,308.8,225z M323.8,144.5c0.6-0.9,1.3-1.4,2.4-1.4c0.9,0,1.9-0.2,2.8-0.2c0.5,0,0.6,0.1,0.7,0.6
				c0,0.4,0,0.8,0,1.3c0,3.5,0,7,0,10.5c0,3.4,0,6.9,0,10.3c0,0.4,0,0.7,0,1.1c0,0.7-0.2,0.9-0.8,0.8c-3.2-0.3-6.3-0.8-9.4-1.6
				c-1.7-0.4-3.3-0.9-4.9-1.5c-1.7-0.6-1.6-0.4-0.9-2c1.3-3.1,2.8-6,4.5-8.9C319.8,150.3,321.8,147.4,323.8,144.5z M298.1,155.6
				c0.2-0.2,0.4-0.4,0.7-0.6c5.3-4.6,11.3-8,18.1-9.9c0.2-0.1,0.4-0.1,0.6-0.1c0,0,0.1,0,0.1,0.1c0.1,0.3-0.1,0.5-0.2,0.7
				c-3.3,4.8-6,9.9-8.2,15.2c-0.1,0.2-0.2,0.5-0.3,0.7c-0.1,0.1-0.3,0.2-0.4,0.2c-0.1,0-0.3-0.1-0.4-0.1c-3.3-1.4-6.4-3.1-9.3-5.1
				c-0.2-0.1-0.3-0.2-0.5-0.4C298,156,297.9,155.8,298.1,155.6z M285.4,173.5c2-4.9,4.7-9.4,8.2-13.4c0.1-0.2,0.3-0.3,0.4-0.5
				c0.2-0.1,0.4-0.2,0.6,0c0.1,0.1,0.2,0.1,0.3,0.2c3.5,2.4,7.4,4.3,11.3,6.1c0.2,0.1,0.5,0.2,0.8,0.4c-0.4,1.3-0.8,2.5-1.2,3.7
				c-0.4,1.3-0.8,2.6-1.2,3.9c-0.1,0.3-0.3,0.5-0.7,0.5c-0.3,0-0.5,0-0.8,0c-5.6,0-11.2,0-16.7,0c-0.4,0-0.7,0-1.1-0.1
				C285.2,174,285.3,173.8,285.4,173.5z M283.6,201.8c0,0-0.1-0.1-0.1-0.1c-0.1-0.1-0.1-0.2,0-0.3c1.1-0.4,1.1-1.3,1.1-2.3
				c0-3.7,0-7.4,0-11.1c0-0.2,0-0.3,0-0.5c0-0.8-0.1-1.5-1-1.7c-0.1,0-0.2-0.2-0.1-0.4c0-0.1,0.2-0.1,0.3-0.1c0.4,0,0.8,0,1.2,0
				c3.6,0,7.3,0,10.9,0c0.9,0,1.9,0.1,2.8-0.1c0.3-0.1,0.6,0.1,0.6,0.3c0.3,1.4,0.6,2.7,0.9,4.1c0,0.2,0,0.3-0.2,0.4
				c-0.1,0-0.3,0-0.4-0.1c-0.6-0.8-1.4-0.9-2.2-0.9c-2.2,0-4.4,0-6.6,0c-0.2,0-0.4,0-0.6,0c-0.3,0-0.6,0.2-0.6,0.6
				c0,0.2,0,0.4,0,0.6c0,1.4,0,1.4,1.4,1.4c1.4,0,2.8,0,4.2,0c0.7,0,1.5,0,1.9-0.8c0-0.1,0.2-0.1,0.3-0.1c0.2,0,0.3,0.2,0.3,0.3
				c0,1.6,0,3.2,0,4.8c0,0.1-0.1,0.2-0.2,0.2c-0.1,0.1-0.2,0.1-0.3,0c-0.4-0.8-1.1-0.8-1.9-0.8c-1.7,0-3.3,0-5,0
				c-0.5,0-0.7,0.1-0.7,0.6c0,0.2,0,0.4,0,0.6c0,1.6-0.1,1.6,1.5,1.5c2,0,4.1,0,6.1,0c1,0,1.9-0.1,2.5-1c0.1-0.2,0.4-0.3,0.5-0.1
				c0.1,0.1,0.2,0.3,0.1,0.4c-0.2,1-0.4,2-0.6,3.1c-0.4,1.5,0,1.4-1.8,1.4c-2.2-0.1-4.4,0-6.6,0c0,0,0,0,0,0c-2.3,0-4.6,0-6.9,0
				C284.2,201.9,283.9,201.8,283.6,201.8z M286.3,212.6c5.6,0,11.2,0,16.7,0c0.2,0,0.4,0,0.6,0c0.4,0,0.7,0.2,0.8,0.6
				c0.4,1.3,0.8,2.7,1.3,4c0.3,1,0.7,2,1,2.9c0.2,0.5,0.1,0.6-0.4,0.9c-0.2,0.1-0.5,0.2-0.7,0.3c-3.8,1.7-7.5,3.6-11,6
				c-0.1,0.1-0.3,0.1-0.4,0.2c-2.5-1.8-8.3-11-9.1-14.7C285.6,212.5,286,212.6,286.3,212.6z M316.1,249.2c-0.9,0.7-1.9,1.2-3,1.5
				c-0.3,0.1-0.7,0.1-0.9-0.2c-0.2-0.3-0.1-0.7,0.1-1c0.8-1.1,2-1.7,3.2-2c0.5,0.1,1,0.1,1.2,0.6
				C316.8,248.6,316.4,248.9,316.1,249.2z M292.1,272.9c-1.1,0.8-1.9,1.8-1.9,3.2c0,0.8-0.6,1.4-1.3,1.7c-1.1,0.5-2.2,1-3.3,1.4
				c-1,0.4-1.9,0.1-2.7-0.5c-0.7-0.7-0.4-1.5-0.1-2.3c1-2.1,2.2-4.2,3.7-6.1c1.3-1.6,2.3-3.5,3.9-4.9c1.6-1.5,3.4-2.8,5.1-4.2
				c2-1.5,3.5-3.4,5.2-5.1c2-2.1,3.5-4.4,5.2-6.6c0.8-0.9,0.8-1.5-0.1-2.2c-0.8-0.7-1.3-1.5-1.6-2.5c-0.2-0.9-0.7-1.6-1.4-2.3
				c1.2,0.5,2.4,1,3.5,1.7c0.8,0.6,1.6,1,2.5,1.3c2.2,0.8,2.7,2,1.6,4c-0.9,1.8-1.9,3.5-3.6,4.7c-0.9,0.6-1.3,1.7-1.7,2.7
				c-0.4,0.9-1,1.6-1.7,2.1c-0.6,0.4-1.1,0.9-1.5,1.6c-0.6,0.9-1.3,1.7-2.4,1.9c-0.3,0.1-0.5,0.3-0.7,0.6c-1.5,2.7-3.2,5.2-4.8,7.8
				C293.5,271.7,292.8,272.3,292.1,272.9z M297.6,279.5c2.3-3.4,3.8-7.1,5.2-10.9c0.2-0.5,0.4-1,0.7-1.5c2.1-2.5,3.5-5.5,5.2-8.2
				c1.4-2.3,3.1-4.5,4.7-6.6c1.1-1.5,3-1.8,4.5-2.8c2.3-1.5,4.7-0.5,7.1-0.3c3.1,0.3,6.2,0.2,9.3,0.1c0.3,0,0.5,0,0.8,0
				c5.2-0.2,10-1.2,14.3-2.6c0.2,0.1,0.4,0.2,0.6,0.4c1,1.1,2.3,1.9,3.7,2.4c1.1,0.4,1.8,1.1,2.2,2.2c1,2.7,2.6,5,4.5,7.1
				c0.8,0.9,1,2,1.7,2.9c2,2.5,2.8,5.4,3.6,8.4c0.7,2.4,1.5,4.8,2.5,7.1c0.5,1.2,0.3,2.1-0.7,3.1c-1.4,1.4-3,2.4-4.8,3.1
				c-2.4,0.9-4,2.6-5.1,4.7c-0.9,1.8-2.3,2.8-4.2,3.2c-1.1,0.3-2,0.7-2.8,1.7c-0.5,0.6-1.2,0.9-1.8,1.3c-1.3,0.8-2.5,1.6-3.6,2.7
				c-1.6,1.7-4.1,1.7-5.9,0.1c-1.3-1.1-1.4-2.6-1.4-4.2c0.2-3.2,1.2-6.1,3.4-8.6c1.3-1.5,1.8-3.4,1.5-5.4c-0.1-0.7-0.2-1.4,0-2
				c0.4-1.4,0.2-2.7,0-4.1c-0.1-1-0.5-1.9-1.4-2.6c-0.7-0.6-1.2-1.3-1.4-2.2c-0.7-2.9-5.3-6.3-8.3-5.8c-1,0.2-2,0.3-2.7,1.2
				c-0.8,1-1.8,1.6-3.1,1.6c-1.9,0-2.9,1.2-3.8,2.6c-1.8,2.8-3,5.8-3,9.3c0,1.6-0.3,3.2,0.1,4.8c0.3,1.3,0.9,2.4,1.6,3.4
				c0.9,1.2,1.2,2.6,1.2,4.1c0,1,0.3,2,0,3.1c-0.1,0.4-0.2,0.9-0.4,1.3c-0.3,0.5-0.4,1-0.4,1.7c0.1,1-0.2,1.9-1.3,2.3
				c-0.6,0.2-1.2,0.4-1.7,0.7c-2.9,1.2-3.8,1.2-6.3-1.7c-1.1-1.2-2.2-2.4-3.7-3.1c-1.1-0.6-1.7-1.6-2.3-2.6
				c-0.7-1.3-1.4-2.6-2.2-3.9c-1.1-1.8-2.8-3-4.5-4.1c-0.5-0.3-1-0.5-1.4-0.8C297.2,281.4,297,280.4,297.6,279.5z M327,288.7
				c-2.2,0.2-3.4-0.7-3.5-3c-0.1-1.6,0.1-3.2-0.2-4.7c-0.1-0.7-0.4-1.4-0.4-2.1c-0.2-1.6,0.5-2.2,2-1.5c2,0.9,4,0.9,5.9-0.1
				c0.7-0.4,1.3-0.1,2,0.2c1.6,0.9,3.3,1,5.1,0.4c1-0.3,1.6,0.4,1.6,1.7c-0.1,0.3-0.1,0.8-0.3,1.2c-0.9,1.7-1.1,3.6-1.3,5.5
				c-0.2,1.6-1.2,2.2-2.8,2.2C332.3,288.5,329.7,288.5,327,288.7z M326.9,300.7c-0.5,0.5-1,0.1-1.4-0.1c-0.7-0.3-1.3-0.8-1.9-1.2
				c-0.4-0.3-0.7-0.7-0.7-1.2c0.1-0.3,0.1-0.5,0.2-0.8c0.5-1.2,1.1-2.4,1.2-3.7c0-0.3,0.1-0.7,0.5-0.7c0.4,0,0.4,0.4,0.4,0.7
				c0.1,0.7,0.3,1.5,0.3,2.2c0.1,0.9,0.4,1.7,1,2.5c0.2,0.2,0.3,0.5,0.4,0.7C327.1,299.7,327.4,300.2,326.9,300.7z M333.3,268.1
				c2.2,0,4.4,1.7,5.1,3.8c0.7,2.2,0.2,3-2.2,3c-0.3,0-0.6,0-0.9,0c-1,0-1.9,0.1-2.9-0.2c-0.1,0-0.3-0.1-0.4,0
				c-2.2,0.6-4.3,0.1-6.5,0.2c-1.2,0.1-1.7-0.3-1.5-1.6c0.3-2.9,2.5-5.3,5.7-5.2C330.8,268.2,332.1,268.1,333.3,268.1z M330.8,264.2
				c0-0.4,0.2-0.5,0.5-0.7c0.7-0.3,2.9,0.3,3.3,1c0.2,0.4,0,0.6-0.3,0.7c-0.4,0.1-0.8,0-1,0.1c-0.8,0-1.4,0.1-1.9-0.2
				C331,264.8,330.7,264.6,330.8,264.2z M312.7,396.3c-0.1,0.3-0.2,0.5-0.5,0.6c-0.4,0-0.5-0.3-0.6-0.6c-0.4-1.1-0.4-2.3-0.4-3.4
				c-0.1-2-0.6-4.1-0.1-6.2c0.1-0.2,0.1-0.5,0.1-0.7c0.1-0.3,0.2-0.6,0.6-0.6c0.3,0,0.5,0.2,0.6,0.5c0.1,0.2,0.2,0.5,0.2,0.7
				c0,2,0.5,3.9,0.7,6C313.2,393.8,312.9,395.1,312.7,396.3z M314.9,366.5c0,0.8-1.1,1.8-1.8,1.8c-0.5-0.1-0.9-0.7-0.9-1.4
				c0.1-1.5,0.7-2.6,1.4-2.6C314.2,364.3,314.9,365.5,314.9,366.5z M320.4,365.3c-0.4,0.2-0.7,0-0.9-0.2c-0.7-0.5-1.2-1.3-1.7-1.9
				c-0.6-0.8-1.4-1.2-2.5-1c-0.9,0.2-1.3-0.1-1.3-0.9c0.1-0.8,0.3-1.5,0.6-2.3c0.4-0.9,0.5-1.8,0.3-2.8c-0.2-0.9-0.1-1.9-0.1-2.8
				c0-0.3,0.1-0.6,0.4-0.8c0.4-0.2,0.7,0,0.9,0.3c0.7,0.9,1.5,1.9,2.1,2.9c0.5,0.7,0.1,1.2-0.9,1.4c-1.3,0.2-1.2,0.2-0.5,1.2
				c0.2,0.2,0.3,0.5,0.4,0.7c0.4,1.4,1,2.5,2.3,3.3c0.6,0.4,1,1,1.2,1.8C320.9,364.6,320.8,365,320.4,365.3z M329,492.1
				c-0.1,0.6-0.2,1.2-0.9,1.4c-0.7,0.2-0.9-0.5-1.2-0.9c-0.5-0.8-0.9-1.6-1-2.6c0.1-0.3,0.1-0.7,0.2-1c0.6-1.3,0.2-2.4-0.7-3.4
				c-1.9-2.2-1.6-4.8-1.1-7.3c0.1-0.3,0.2-0.8,0.7-0.8c0.4,0.1,0.4,0.5,0.4,0.9c0.1,1.5,0.8,2.7,1.9,3.8c1,0.9,1.4,2.2,1.5,3.5
				c0,0.3-0.1,0.6,0.1,0.8C329.8,488.3,329.2,490.2,329,492.1z M332.1,484.6c-0.3,0.9-1.1,1-1.7,0.3c-0.5-0.5-0.7-1.2-0.9-1.9
				c-0.3-1.2-0.7-2.4-1.4-3.4c-0.9-1.2-1-2.7-1-4c-0.1-2.8-0.4-5.6-0.3-8.3c0-0.4,0.1-0.9-0.1-1.2c-1.5-3.9-1.4-8.1-2.3-12.1
				c-0.3-1.3-0.2-2.8,0-4.1c0.4-2.6-0.2-5-1.1-7.3c-0.3-0.7-0.4-1.4-0.4-2.2c0.1-1.1,0.6-1.6,1.7-1.7c0.6,0,1.2,0.1,1.8-0.3
				c0.3-0.2,0.5,0,0.6,0.3c0.2,0.7,0.3,1.3,0.3,2c0,1.5,0.2,2.8,1.2,4.1c1,1.3,0.7,2.8,0.7,4.3c0.1,3-0.3,6-0.9,8.9
				c-0.2,1.1-0.1,2.2,0.6,3.1c0.5,0.7,0.6,1.5,0.2,2.3c-0.6,1.2-0.7,2.2,0.2,3.5c0.9,1.3,0.7,3,0.9,4.5c0.2,1.3,0.3,2.5,0.8,3.7
				c0.6,1.7,1.1,3.5,1.6,5.2C332.8,481.6,332.6,483.1,332.1,484.6z M324.7,392.2c1.2-2,2.3-4,2.1-6.5c-0.1-0.6,0-1.2-0.3-1.7
				c-0.7-1.5-0.5-3-0.8-4.5c0-0.3-0.1-0.7,0.3-0.8c0.4-0.1,0.5,0.3,0.7,0.5c1.7,3.6,3.6,7.1,4.5,10.9c0.4,1.6,0.6,3.2,0.3,4.9
				c0,0.1,0,0.1,0,0.2c0.4,2.4-0.1,4.8-0.1,7.2c0,0.3,0,0.6-0.1,0.8c-0.2,0.6-0.5,0.6-0.8,0.1c-0.9-1.5-2.1-3-1.4-5
				c0.2-0.6,0.1-1.2,0.1-1.8c0-0.2-0.1-0.4-0.3-0.5c-0.3-0.1-0.3,0.2-0.4,0.4c-1.2,1.3-1.1,2.9-1.3,4.4c0,0.4,0.2,0.9-0.3,1.1
				c-0.5,0.1-0.8-0.3-1-0.7c-0.8-1.8-2.1-3.4-1.9-5.5C323.6,394.5,324.1,393.4,324.7,392.2z M329.7,423.9c1,1.8,0.3,3.4-0.6,5
				c-0.5,0.8-1.8,0.7-2.9-0.1c-0.7-0.6-0.8-1.2-0.1-2c0.9-1,0.9-2.2,1-3.4c0.2-2.1,1.1-4.1,1.5-6.2c0.2-0.8,0.4-1.5,0.2-2.2
				c-0.5-1.9-0.1-3.8-0.3-5.7c-0.1-0.5,0-1,0.4-1.5c0.2-0.3,0.3-0.7,0.7-0.6c0.4,0.1,0.5,0.4,0.6,0.8c0.2,1,0.6,2.1,0.7,3.1
				c0.1,1.1,0,2.1,0,3.2c0.2,1.7,0,3.4-0.3,5.1c-0.1,0.8-0.4,1.6-0.8,2.3C329.3,422.4,329.2,423.1,329.7,423.9z M330.9,432.3
				c0.2-2.7,0.3-5.4,0.8-8.1c0.1-0.3,0-0.8,0.4-0.8c0.4,0,0.4,0.5,0.5,0.8c0.9,4.5,1.8,9,0.7,13.6c-0.1,0.3-0.1,0.7-0.1,1
				c-0.1,0.5-0.1,1.1-0.7,1.1c-0.6,0-0.7-0.6-0.9-1c-0.2-0.7-0.4-1.4-0.4-2.1C331.2,435.3,330.8,433.8,330.9,432.3z M335.1,466.6
				c-0.4,3.1,0,6.3-0.4,9.4c0,0.3-0.1,0.6-0.2,0.8c-0.2,0.4-0.4,0.8-0.9,0.8c-0.5,0-0.6-0.5-0.7-0.9c-1.1-3.2-1.4-6.6-1.7-9.9
				c-0.1-2.1-0.4-4.1-0.5-6.2c0-1.6,0.5-3.2,0.9-4.7c0.2-0.8,0.3-1.6,0.5-2.4c0.1-0.3,0.1-0.6,0.5-0.6c0.4-0.1,0.5,0.3,0.6,0.6
				c0.7,2,1.4,4.1,1.6,6.3C335.1,461.9,335.4,464.3,335.1,466.6z M346,456c-1,3.4-2,6.8-2.8,10.3c-0.1,0.6-0.2,1.2-0.1,1.8
				c0.2,2.6-0.4,5.1-0.5,7.7c-0.1,1,0.2,2-0.1,3.1c-0.2,0.5-0.3,1-0.7,1.4c-0.7,0.6-0.8,1.3-0.5,2.2c0.7,2.3,1.3,4.6,1.9,6.9
				c0.2,0.9,0.3,1.9,0.3,2.9c0,0.7-0.2,1.5-0.7,2c-1.9,2.1-1.9,4.8-2.2,7.3c0,0.1,0,0.3,0,0.4c0,0.4,0,0.9-0.5,0.9
				c-0.5,0.1-0.5-0.5-0.6-0.8c-0.1-0.3-0.2-0.7-0.3-1c-0.8-1.5-1.2-3.2-1.1-4.9c0.1-2.5-0.1-4.8-1.4-7c-0.1-0.2-0.2-0.4-0.2-0.6
				c0.1-2.3-0.1-4.6,0.8-6.7c1-2.4,0.9-4.8,0.7-7.2c-0.1-3.1-0.3-6.2,0.1-9.3c0.3-2.6,0.1-5.3,0.1-7.9c0-0.6-0.3-1.1-0.7-1.6
				c-1.3-1.6-1.6-3.6-1.7-5.5c-0.1-1.3-0.1-2.5-0.4-3.8c-0.1-0.6-0.1-1.2,0-1.9c0.2-1.3,0.7-1.6,2-1.4c1.2,0.2,2-0.2,2.2-1.4
				c0.2-1.3,0.4-2.6,0.6-4c0.1-0.7-0.2-1.4-0.2-2.1c0-0.3,0-0.6,0.4-0.6c0.4,0,0.4,0.3,0.4,0.6c0,0.2,0,0.4,0,0.6
				c-0.3,2.2,0.5,4.1,1.7,5.9c0.2,0.3,0.3,0.6,0.7,0.5c0.4-0.1,0.2-0.5,0.2-0.8c-0.3-1.3,0-2.5,1.4-3.1c0.6-0.3,0.7-0.9,0.8-1.5
				c0.1-0.5,0.2-1,0.8-1c0.6,0,0.8,0.6,0.8,1c0.2,2,0.8,3.9,0.9,5.9C348.5,447.8,347.3,451.9,346,456z M351.3,359.3
				c0.4,1.2,0.5,2.4-0.1,3.6c-0.3,0.6-0.3,1.2-0.1,1.8c0.7,1.7,0.6,3.5,0,5.2c-0.2,0.5-0.3,1-0.2,1.5c1,4.4,1.7,8.8,2.3,13.3
				c0.3,1.9-0.2,3.8-0.2,5.6c0,0.4-0.1,0.8-0.1,1.1c0.1,1.3-0.2,2.3-1.1,3.3c-1,1.1-1.1,2.6-1.3,4c-0.6,4.8-1.3,9.5-2.2,14.3
				c-0.2,1.1-0.7,2.2-1.1,3.3c-0.4,1.1-0.7,2.3-1,3.5c-0.4,1.3-0.8,2.6-1.8,3.6c-1,0.9-1.5,2.2-1.6,3.6c-0.1,1.2-0.4,2.4-0.4,3.7
				c0,1-0.7,1.9-1.5,2c-1,0.1-1.6-0.5-2-1.4c-0.4-0.9-0.4-1.8-0.5-2.8c-0.3-2.3,0.5-4.3,1.1-6.3c0.2-0.9,0.1-1.7-0.5-2.4
				c-1-1.1-1.1-2.5-1.3-3.9c0-0.2,0-0.3,0-0.5c0-2.4,0.1-4.8-0.8-7.1c-1-2.6-0.1-5,1-7.3c0.3-0.7,0.6-1.3,0.7-2c0-0.2,0-0.5-0.2-0.6
				c-0.3-0.2-0.5,0-0.7,0.3c-1,1.3-1.9,2.6-2.2,4.2c-0.1,0.8-0.3,1.6-0.7,2.4c-0.2,0.4-0.4,0.8-0.9,0.7c-0.5-0.1-0.6-0.6-0.7-1.1
				c-0.3-1.8-0.2-3.6-0.2-5.4c0-1.7,0-3.4-0.2-5.2c-0.3-3.3,0.8-6.3,2-9.3c0.8-1.9,1.7-3.9,3.2-5.4c0.2-0.2,0.3-0.4,0.4-0.6
				c0.5-1.9,1.8-3.4,2.8-5.1c0.7-1.2,1.5-2.1,2.7-2.8c0.8-0.4,1.6-0.9,2.2-1.5c0.2-0.2,0.4-0.3,0.3-0.6c-0.1-0.2-0.3-0.2-0.5-0.2
				c-1.2,0.1-1.1-0.6-0.8-1.4c0.8-1.7,1.3-3.4,1.2-5.3c0-1.1,0.6-2.1,1.1-3.1c0.5-1,0.6-1.9,0.4-3c-0.2-0.9-0.5-1.8-0.1-2.7
				c0.2-0.4,0.3-0.8,0.8-0.9c0.5,0,0.6,0.5,0.7,0.8C349.6,355.3,350.6,357.3,351.3,359.3z M344.9,357.6c0.7,1.3,0.1,2.5-1.4,2.8
				c-0.6,0.2-1.1,0-1.5-0.5c-0.4-0.5-0.6-1.2-1-1.7c-1.1-1.7-0.6-2.4,1-3.3c1.3-0.7,2-1.7,2.1-3.2c0-0.5,0.2-1,0.7-1
				c0.5,0,0.5,0.6,0.5,1c0.1,0.4,0.1,0.7,0.2,1.1c0,0.4-0.1,0.9-0.4,1.2C344.2,355.2,344.3,356.3,344.9,357.6z M343.8,346
				c-0.9,0.6-1,1.4-0.8,2.3c0.2,1.5-0.2,2.3-1.5,3c-1.4,0.7-2.8,1.5-4.2,2.3c-0.2,0.1-0.4,0.2-0.7,0.3c-0.3,0.1-0.6,0.2-0.8-0.1
				c-0.2-0.3,0-0.5,0.2-0.7c0.8-0.8,1.3-1.8,2-2.6c1.2-1.3,1.8-2.8,2.2-4.5c0.1-0.3,0.1-0.6,0.2-0.8c1-1.2,1.4-2.6,1.6-4.2
				c0-0.4,0.3-0.8,0.8-0.8c0.5,0,0.8,0.2,1,0.6c0.7,1,0.8,2.3,1,3.4C344.7,344.8,344.5,345.5,343.8,346z M346.2,342
				c0.1-0.5,0.2-0.9,0.7-1.1c0.5-0.1,0.8,0.3,1.1,0.6c0.4,0.4,0.6,1,0.4,1.5c-0.7,1.2-0.8,2.6-1.2,3.9c-0.1,0.3-0.1,0.7-0.5,0.7
				c-0.4,0-0.4-0.4-0.5-0.7c-0.3-0.8-0.3-1.6-0.2-2.5C346,343.7,346.1,342.9,346.2,342z M355.5,327.1c-0.3,0.1-0.5,0-0.7-0.3
				c-0.5-0.6-1.1-1.1-1.5-1.8c-0.3-0.6-0.1-0.9,0.5-0.9c0.6,0,2.1,1.5,2.2,2.2C355.9,326.7,355.8,327,355.5,327.1z M366.5,289.7
				c-0.1,0.3-0.2,0.5-0.3,0.8c-1.9,2.8-3.1,5.9-4.9,8.7c-0.7,1.1-1.5,2.1-2.4,2.9c-0.6,0.6-1.4,1-2.3,0.6c-0.9-0.4-1-1.2-1-2.1
				c0-1,0-1.9,0-2.9c0-0.4-0.1-0.7-0.5-0.8c-0.4-0.1-0.6,0.3-0.7,0.6c-0.8,2.9-2.2,5.6-2.3,8.6c0,0.9-0.2,1.8-0.4,2.6
				c-0.7,2.5-0.5,5.2-1,7.8c-0.5,2.7-2,4.9-3.5,7.2c-0.3,0.5-0.9,0.7-1.5,0.8c-1.3,0.4-2.5,0.8-3.6,1.6c-1.7,1.2-3.6,1.8-5.6,2.1
				c-0.6,0.1-1.1,0.2-1.7,0.4c-0.2,0.1-0.5,0.2-0.5,0.5c0,0.4,0.4,0.4,0.6,0.4c0.4,0,0.8,0,1.1,0c2,0,3.9-0.5,5.9-0.7
				c2-0.2,4-0.3,5.6,1.2c0.6,0.6,1.3,0.6,2,0.1c0.5-0.3,1-0.4,1.4,0c0.5,0.5,1,1.1,0.8,1.9c-0.1,0.6-0.6,0.8-1.2,0.7
				c-0.7-0.1-1.3-0.4-1.9-0.7c-1.6-0.9-3.4-1.4-5.2-1.7c-0.4-0.1-1-0.2-1.2,0.3c-0.2,0.5,0.3,0.8,0.7,1c1.8,0.9,2.8,2.5,3.3,4.4
				c0.1,0.4,0.2,0.8-0.2,1.1c-0.4,0.3-0.9,0.3-1.2-0.1c-1.5-1.6-3.7-2.2-5.2-3.8c-0.8-0.9-2-1.2-3.1-1.3c-1.5-0.1-2.8-0.5-4.2-1
				c-1-0.4-1.6,0-1.6,1.1c0,0.3,0,0.7,0.1,0.9c0.8,1.3,0.7,2.7,0.7,4.1c-0.1,2,0.3,3.8,1.4,5.5c0.4,0.6,0.3,1.2-0.1,1.8
				c-1.7,2.6-1.4,6.7,0.7,9c0.4,0.4,0.7,0.7,0.2,1.2c-1,1-1.3,2.3-1.4,3.7c-0.1,1.4-0.8,2.3-1.9,3c-1.2,0.8-2.5,0.4-3.1-0.9
				c-0.5-1-0.9-1.9-1.5-2.8c-0.5-0.6-0.3-1.2,0.4-1.7c0.5-0.3,1-0.6,1.5-0.9c2-1.3,1.8-2.8,0.6-4c-1.6-1.7-0.9-3.5-0.9-5.2
				c0-0.5,0.5-0.9,0.9-1.2c0.9-0.9,0.9-1.5,0-2.4c-1.5-1.4-1-3.1-0.9-4.7c0.2-1.9,0.1-2.1-1.7-2.2c-0.6,0-1.2,0-1.4-0.7
				c-0.2-0.7,0.4-1,0.8-1.3c0.8-0.6,1.6-1.2,2.4-1.8c1-0.7,1.6-1.7,2.3-2.7c0.3-0.4,0.3-1,0-1.4c-0.3-0.4-0.9-0.6-1.3-0.3
				c-1.9,1.4-4,1.1-6.2,0.9c-3.3-0.3-5.6-1.9-7.3-4.6c-0.7-1.1-0.6-2.4-0.9-3.6c-0.4-1.6,0-3.2,0.4-4.7c0.5-2,0.4-4,0.4-6
				c0-1-0.4-1.2-1.3-0.7c-1,0.6-1.8,0.5-2.4-0.5c-1.8-2.5-2.9-5.4-3.6-8.4c-0.2-0.9-0.6-1.6-1.5-2c-0.7-0.3-1.4-0.7-2.2-1
				c-0.8-0.3-1.3-0.8-1.7-1.6c-0.9-1.6-2.1-2.9-3.1-4.5c-1-1.5-1.5-3.1-1.4-5c0.1-1.2,0.8-1.6,1.8-1c1.2,0.6,2.1,1.6,2.9,2.6
				c1.9,2.5,3.6,5.1,4.3,8.2c0.1,0.4,0.3,0.8,0.8,0.9c0.5,0.1,0.6-0.3,0.9-0.6c0.6-0.9,1.1-0.9,2-0.1c2.6,2.4,5.2,4.9,6.7,8.3
				c0.1,0.3,0.4,0.6,0.6,0.8c0.4,0.5,0.9,0.6,1.4,0c0.6-0.8,1.3-0.8,2.1-0.3c1.4,1,3,1.5,4.7,1.8c0.6,0.1,1.1,0.4,1.5,0.9
				c0.6,0.7,1.3,1.3,2,1.8c0.4,0.3,0.9,0.7,1.4,0.2c0.4-0.5,0.3-1.1-0.1-1.5c-0.8-1-0.8-2.1-0.7-3.2c0-0.6,0.2-1.1,0.7-1.4
				c0.5-0.3,0.7-0.7,0.8-1.3c0.1-0.8,0.5-1.5,1.1-2.1c1.3-1.3,2-3,2.8-4.5c0.1-0.1,0.2-0.3,0.3-0.4c0.2-0.3,0.4-0.7,0.9-0.6
				c0.5,0.1,0.5,0.5,0.7,0.8c0.2,0.6,0.4,1.3,0.8,1.9c0.5,1,1.2,1.7,2.4,1.9c0.6,0.1,1.2,0.2,1.7,0.3c0.5,0.1,1,0.3,1.1,0.9
				c0.1,0.6-0.2,0.9-0.6,1.2c-0.6,0.4-1.2,0.9-1.9,1.2c-1.8,0.8-3.5,1.9-5.5,2.3c-0.1,0-0.3,0.1-0.4,0.1c-0.6,0.2-1.4,0.4-1.3,1.1
				c0.1,0.8,0.9,0.7,1.5,0.7c0.4,0,1-0.1,1.1,0.5c0,0.6-0.5,0.7-1,0.7c-1.2,0.2-2,0.9-2.5,2c-0.2,0.5-0.7,1-1,1.5
				c-0.4,0.7-0.3,1.4,0.5,1.5c1.5,0.3,2.6,1,3.8,1.9c1.3,1,1.6,0.9,2.7-0.2c0.6-0.6,1.1-1.3,1.6-2.1c0.8-1.2,1.8-1.9,3.3-1.8
				c1.6,0.1,3.2-1.4,3.3-3.1c0-0.4-0.1-0.7-0.4-0.9c-1.8-1.8-1.6-4-0.9-6.2c0.8-2.6,2.5-4.3,4.8-5.5c0.9-0.5,1.7-1.1,2.5-1.8
				c0.3-0.3,0.6-0.5,1-0.7c0.8-0.5,1.4-0.4,1.9,0.4c0.5,0.8,1,0.8,1.5-0.1c0.6-1,1.1-2,1.6-3.1c1.6-3.5,4.2-5.8,8.1-6.5
				c0.7-0.1,1.3-0.4,1.4-1.2c0.1-0.5,0.3-1.1,0.9-0.9c0.6,0.1,0.5,0.8,0.4,1.2c-0.1,0.5-0.1,1.2-0.4,1.6
				C367.4,285.8,367.3,287.9,366.5,289.7z M373.3,291.8c-1,2.1-2,4.2-3.9,5.7c-0.1,0.1-0.3,0.3-0.4,0.1c-0.2-0.1-0.1-0.4-0.1-0.4
				c0.2-1.8,0.3-3.5,2.2-4.2c0.7-0.3,1.3-0.9,1.7-1.6c0.1-0.2,0.3-0.4,0.5-0.2C373.5,291.3,373.4,291.6,373.3,291.8z M371.2,234
				c0.4,0.3-0.2,0.7-0.3,0.9c-1.3,2.3-3,4.3-4.6,6.3c-0.4,0.5-0.8,1.1-1.2,1.7c-0.8,1.4-1,2.9-0.5,4.5c1,3.1,2.7,5.7,4.9,8
				c2.3,2.6,4.9,4.9,7.1,7.6c1.1,1.4,1.8,3,2.6,4.5c1.5,2.8,3.3,5.4,4.3,8.5c0.3,1.1,0.5,2.3,0.6,3.4c0.1,0.4-0.1,0.8-0.5,0.9
				c-0.5,0.2-0.5-0.4-0.6-0.6c-0.7-1-1.7-1.7-2.7-2.5c-0.3-0.3-0.8-0.1-1.2,0c-1,0.2-1.7-0.1-2-1.1c-0.5-1.4-1.7-2.5-2.1-4
				c-0.2-0.7-1.1-1.1-2-1.3c-1-0.2-1.5-0.8-1.4-1.8c0.4-1.2-0.1-2-1.2-2.8c-1.1-0.7-1.6-1.8-1.7-3.2c-0.2-1.5-0.8-2.6-2.2-3.3
				c-0.9-0.5-1.6-1.2-2.1-2.2c-0.5-0.9-1.1-1.8-1.7-2.7c-0.5-0.7-0.6-1.4-0.1-2.1c0.4-0.5,0.3-1.1-0.1-1.5c-1-1.1-1.7-2.3-1.6-3.9
				c0.1-0.6-0.4-1.1-0.8-1.7c-0.9-1.5-0.8-2.9,0.4-4.3c0,0,0.1-0.1,0.1-0.1c5.8-3.4,9.2-6.6,9.5-6.8c0.2-0.1,0.3-0.3,0.5-0.4
				c0.1-0.1,0.2-0.2,0.4-0.3C370.9,233.9,371.1,233.9,371.2,234z"/>
			<path class="st0" d="M333.3,303.5c1.2,0,3.1-2.1,3-3.3c0-0.3-0.1-0.6-0.4-0.7c-0.4-0.1-0.7,0-0.9,0.3c-0.7,0.9-1.4,1.8-2.2,2.7
				c-0.2,0.2-0.3,0.5-0.2,0.7C332.7,303.5,333,303.4,333.3,303.5z"/>
			<path class="st0" d="M330.7,320.1c-0.8,0.1-0.7,0.8-0.8,1.2c0,1.2,0.4,2,1.1,1.9c0.7-0.1,1-0.7,1.1-1.3
				C332.2,321.2,331.3,320.1,330.7,320.1z"/>
			<path class="st0" d="M344,444.2c-1,0.5-1.5,2.3-1,3.3c0.3,0.7,0.8,0.7,1.3,0.2c0.7-0.6,0.9-1.4,1-2.1
				C345.2,444.3,344.7,443.8,344,444.2z"/>
			<path class="st0" d="M333.8,283.9c0.6-0.4,0.1-0.6-0.4-1c-0.4-0.4-0.7-0.8-0.3-1.4c0.5-0.7,0.5-1.3-0.2-1.8
				c-0.9-0.5-1.7-0.4-2.5,0c-0.7,0.3-0.7,1-0.4,1.6c0.2,0.5,0.8,0.7-0.3,1.1c-1.6,0.6-1,0.7-0.5,2.2c0.4,1.1,1.2,0.7,1.8,0.8
				c1,0.1,1.7,0.3,1.8-0.6C332.9,284.5,333.5,284.1,333.8,283.9z"/>
			<path class="st0" d="M328.1,272.4c-0.1,0.4,0.3,0.4,0.6,0.4c0.7,0.2,1.4,0.4,2,0.8c0.9,0.5,2.7,0.1,3.5-0.6
				c0.2-0.2,0.4-0.4,0.3-0.7c-0.1-0.3-0.4-0.4-0.7-0.4c-0.7,0-1.3,0-1.8,0c-1.2-0.1-2.2,0.1-3.2,0.2
				C328.6,272.1,328.2,272.1,328.1,272.4z"/>
		</g>
	</g>
	<g>
		<path class="st0" d="M112.2,675.7v-11.4h33.5v11.4h-10.1v40.2h-13.4v-40.2H112.2z"/>
		<path class="st0" d="M162.2,664.3v18.9h8.2v-18.9h13.4v51.6h-13.4v-21.2h-8.2v21.2h-13.4v-51.6H162.2z"/>
		<path class="st0" d="M220.8,664.3v11h-17.1v8.8h16v10.6h-16v10.3h17.8v11h-31.2v-51.6H220.8z"/>
		<path class="st0" d="M275.7,664.3v11h-17.1v8.8h16v10.6h-16v10.3h17.8v11h-31.2v-51.6H275.7z"/>
		<path class="st0" d="M294.7,664.3v40.6h16.5v11h-30v-51.6H294.7z"/>
		<path class="st0" d="M328.2,664.3v40.6h16.5v11h-30v-51.6H328.2z"/>
		<path class="st0" d="M361.1,664.3v51.6h-13.4v-51.6H361.1z"/>
		<path class="st0" d="M397.5,664.3v11h-17.1v8.8h16v10.6h-16v10.3h17.8v11H367v-51.6H397.5z"/>
		<path class="st0" d="M423.2,677.9c0-1.5-0.3-2.9-0.9-3.9c-0.6-1.1-1.6-1.6-2.9-1.6c-1.4,0-2.5,0.5-3.2,1.4c-0.7,0.9-1,2-1,3.1
			c0,1.7,0.5,3,1.6,4c1.1,1,2.4,1.8,4.1,2.6s3.4,1.5,5.3,2.2c1.9,0.7,3.6,1.7,5.3,2.9c1.6,1.2,3,2.8,4.1,4.7c1.1,2,1.6,4.5,1.6,7.6
			c0,5.5-1.6,9.5-4.7,12c-3.1,2.5-7.7,3.7-13.6,3.7c-2.8,0-5.3-0.2-7.4-0.7s-4-1.3-5.4-2.4c-1.5-1.1-2.6-2.6-3.4-4.4
			c-0.8-1.8-1.2-4.1-1.2-6.8v-1.8h13v1.2c0,2.2,0.4,3.8,1.2,4.7c0.8,0.9,1.9,1.3,3.2,1.3c1.4,0,2.5-0.5,3.2-1.4
			c0.7-1,1.1-2.1,1.1-3.5c0-1.7-0.5-3-1.6-4c-1-1-2.3-1.8-3.9-2.5c-1.6-0.7-3.3-1.4-5.1-2.1c-1.8-0.7-3.5-1.7-5.1-2.8
			c-1.6-1.2-2.9-2.7-3.9-4.6c-1-1.9-1.6-4.3-1.6-7.4c0-5.3,1.4-9.3,4.2-12c2.8-2.7,7-4.1,12.7-4.1c5.9,0,10.1,1.3,12.8,3.8
			c2.6,2.5,3.9,6.6,3.9,12.1h-12.6V677.9z"/>
		<path class="st0" d="M460,674.9c0.4-2.1,1.3-4,2.5-5.5c1.2-1.5,2.9-2.7,5.1-3.5c2.2-0.8,5-1.2,8.5-1.2c3.4,0,6.1,0.4,8.2,1.1
			c2.1,0.7,3.8,1.7,5,3c1.2,1.3,2.1,2.8,2.5,4.4c0.5,1.7,0.7,3.5,0.7,5.4c0,3.5-0.6,6.4-1.7,8.7c-1.2,2.4-2.7,4.5-4.6,6.4l-7.9,7.7
			c-0.6,0.6-1.2,1.2-1.9,1.9c-0.7,0.7-1.2,1.5-1.4,2.2h17.6v10.1h-33.7c0-3.6,0.5-7,1.6-10.2c1.1-3.2,3.1-6.3,6-9.4l9-9.1
			c1.3-1.3,2.2-2.5,2.8-3.7c0.6-1.2,0.8-2.7,0.8-4.7c0-2.2-0.3-3.7-0.9-4.5c-0.6-0.8-1.5-1.2-2.5-1.2c-0.5,0-0.9,0.1-1.4,0.3
			c-0.4,0.2-0.8,0.5-1.2,1c-0.4,0.5-0.7,1.2-0.9,2.1c-0.2,0.9-0.3,2.1-0.3,3.5v2.2h-12.6C459.4,679.4,459.6,677.1,460,674.9z"/>
		<path class="st0" d="M497.5,678c0.7-3.4,1.8-6,3.2-8c1.4-2,3.2-3.3,5.4-4.1c2.2-0.8,4.8-1.2,7.8-1.2c3,0,5.6,0.4,7.8,1.2
			c2.2,0.8,4,2.1,5.4,4.1c1.4,2,2.5,4.6,3.2,8c0.7,3.4,1,7.6,1,12.8c0,5.2-0.3,9.5-1,12.8c-0.7,3.3-1.8,6-3.2,7.9
			c-1.4,1.9-3.2,3.3-5.4,4s-4.8,1.1-7.8,1.1c-3,0-5.6-0.4-7.8-1.1s-4-2.1-5.4-4c-1.4-2-2.5-4.6-3.2-7.9c-0.7-3.3-1-7.6-1-12.8
			C496.5,685.6,496.8,681.4,497.5,678z M510.8,706.6c0.6,1.3,1.6,1.9,3,1.9c1.4,0,2.4-0.6,3-1.9c0.6-1.3,0.9-3.7,0.9-7.3v-16.9
			c0-3.6-0.3-6.1-0.9-7.3c-0.6-1.3-1.6-1.9-3-1.9c-1.4,0-2.4,0.6-3,1.9c-0.6,1.3-0.9,3.7-0.9,7.3v16.9
			C509.9,702.9,510.2,705.3,510.8,706.6z"/>
		<path class="st0" d="M535.2,674.9c0.4-2.1,1.3-4,2.5-5.5c1.2-1.5,2.9-2.7,5.1-3.5c2.2-0.8,5-1.2,8.5-1.2c3.4,0,6.1,0.4,8.2,1.1
			c2.1,0.7,3.8,1.7,5,3c1.2,1.3,2.1,2.8,2.5,4.4c0.5,1.7,0.7,3.5,0.7,5.4c0,3.5-0.6,6.4-1.7,8.7c-1.2,2.4-2.7,4.5-4.6,6.4l-7.9,7.7
			c-0.6,0.6-1.2,1.2-1.9,1.9c-0.7,0.7-1.2,1.5-1.4,2.2h17.6v10.1H534c0-3.6,0.5-7,1.6-10.2c1.1-3.2,3.1-6.3,6-9.4l9-9.1
			c1.3-1.3,2.2-2.5,2.8-3.7c0.6-1.2,0.8-2.7,0.8-4.7c0-2.2-0.3-3.7-0.9-4.5c-0.6-0.8-1.5-1.2-2.5-1.2c-0.5,0-0.9,0.1-1.4,0.3
			c-0.4,0.2-0.8,0.5-1.2,1c-0.4,0.5-0.7,1.2-0.9,2.1c-0.2,0.9-0.3,2.1-0.3,3.5v2.2h-12.6C534.5,679.4,534.8,677.1,535.2,674.9z"/>
		<path class="st0" d="M572.8,674.9c0.4-2.1,1.3-4,2.5-5.5c1.2-1.5,2.9-2.7,5.1-3.5c2.2-0.8,5-1.2,8.5-1.2c3.4,0,6.1,0.4,8.2,1.1
			s3.8,1.7,5,3c1.2,1.3,2.1,2.8,2.5,4.4c0.5,1.7,0.7,3.5,0.7,5.4c0,3.5-0.6,6.4-1.7,8.7c-1.2,2.4-2.7,4.5-4.6,6.4l-7.9,7.7
			c-0.6,0.6-1.2,1.2-1.9,1.9c-0.7,0.7-1.2,1.5-1.4,2.2h17.6v10.1h-33.7c0-3.6,0.5-7,1.6-10.2c1.1-3.2,3.1-6.3,6-9.4l9-9.1
			c1.3-1.3,2.2-2.5,2.8-3.7c0.6-1.2,0.8-2.7,0.8-4.7c0-2.2-0.3-3.7-0.9-4.5c-0.6-0.8-1.5-1.2-2.5-1.2c-0.5,0-0.9,0.1-1.4,0.3
			c-0.4,0.2-0.8,0.5-1.2,1c-0.4,0.5-0.7,1.2-0.9,2.1c-0.2,0.9-0.3,2.1-0.3,3.5v2.2H572C572.1,679.4,572.3,677.1,572.8,674.9z"/>
	</g>
</g>
</svg>
